<?xml version="1.0" encoding="UTF-8"?>
<svg version="1.1" xmlns="http://www.w3.org/2000/svg" width="246" height="317">
<path d="M0 0 C0.97742157 0.00529724 1.95484314 0.01059448 2.96188354 0.01605225 C5.78231966 0.03790347 8.59857789 0.1019566 11.41796875 0.1796875 C12.68377777 0.18512573 12.68377777 0.18512573 13.97515869 0.19067383 C19.50147702 0.41459114 22.43914846 1.77827176 26.47114563 5.57107544 C30.03967016 9.70511938 30.20334215 14.65404768 30.0625 19.8828125 C29.52495694 24.70390178 27.88713892 28.07864105 24.4375 31.4375 C19.35734196 34.70331588 15.60866637 35.34561105 9.5625 35.1875 C7.31304371 35.1338304 5.06250201 35.1043848 2.8125 35.125 C2.4825 35.455 2.1525 35.785 1.8125 36.125 C-0.11019854 36.16807778 -2.0342603 36.15299548 -3.95703125 36.11328125 C-10.6739954 36.0666166 -17.20632513 36.54581938 -23.875 37.3125 C-25.02621338 37.44342041 -26.17742676 37.57434082 -27.36352539 37.70922852 C-35.67324351 38.70788674 -43.90145297 40.0092498 -52.125 41.5625 C-53.15906982 41.75545654 -54.19313965 41.94841309 -55.25854492 42.1472168 C-61.60326315 43.40589806 -67.60474957 45.15505858 -73.69360352 47.34008789 C-76.1875 48.125 -76.1875 48.125 -79.1875 48.125 C-79.1875 48.785 -79.1875 49.445 -79.1875 50.125 C-79.97511719 50.33253906 -80.76273437 50.54007813 -81.57421875 50.75390625 C-96.68578722 55.02806585 -111.96046401 62.80090577 -121.1015625 76.08984375 C-123.58371454 80.74164668 -124.11978451 85.29668177 -124.3125 90.5 C-118.57921069 108.97393221 -98.97026717 118.68177141 -83.1875 127.125 C-82.00415298 127.74385606 -80.81950895 128.36024746 -79.6328125 128.97265625 C-78.70210938 129.45605469 -77.77140625 129.93945312 -76.8125 130.4375 C-76.06226563 130.80488281 -75.31203125 131.17226562 -74.5390625 131.55078125 C-72.33582151 133.02570836 -70.81502814 134.47800202 -68.9921875 136.3828125 C-64.98479156 140.50610703 -60.48182404 143.54808876 -55.6875 146.6875 C-50.41173958 150.16716821 -45.38664404 153.60052552 -40.77539062 157.94116211 C-39.21867142 159.26046681 -39.21867142 159.26046681 -37.08862305 159.6496582 C-35.1875 160.125 -35.1875 160.125 -33.61328125 162.390625 C-33.14277344 163.29296875 -32.67226562 164.1953125 -32.1875 165.125 C-29.28045986 170.04335362 -26.35930928 174.93394856 -23.1875 179.6875 C-22.6925 180.43128906 -22.1975 181.17507812 -21.6875 181.94140625 C-20.72124792 183.34800759 -19.72301724 184.73342403 -18.6875 186.08984375 C-7.83521354 200.81390949 -5.5297071 219.32300036 -8.00756836 236.99853516 C-9.99998636 249.54613506 -14.52294874 259.57568285 -21.41796875 270.21484375 C-23.2463949 272.97225957 -23.2463949 272.97225957 -24.03125 275.70703125 C-25.68383273 279.16293905 -28.4004306 280.81139183 -31.5 282.875 C-32.12519531 283.30329102 -32.75039062 283.73158203 -33.39453125 284.17285156 C-34.69073422 285.06072446 -35.98975731 285.94449366 -37.29150391 286.82421875 C-39.05919471 288.03697391 -40.78901216 289.28695964 -42.51171875 290.5625 C-64.71918753 306.73325217 -89.84406394 309.65646016 -116.5625 307.3125 C-117.56474609 307.22629395 -118.56699219 307.14008789 -119.59960938 307.05126953 C-126.14365273 306.44028037 -132.27917572 305.39835302 -138.63671875 303.72265625 C-141.93714357 302.9493561 -144.81928736 302.89000842 -148.1875 303.125 C-148.5175 301.805 -148.8475 300.485 -149.1875 299.125 C-149.85523438 299.03476562 -150.52296875 298.94453125 -151.2109375 298.8515625 C-155.02054246 297.92165893 -158.34021116 296.27182003 -161.8125 294.5 C-162.52108154 294.14099609 -163.22966309 293.78199219 -163.9597168 293.41210938 C-169.94933075 290.33208569 -175.61998446 286.91760833 -181.1875 283.125 C-182.64349609 282.20267578 -182.64349609 282.20267578 -184.12890625 281.26171875 C-191.78465188 276.17487844 -195.80949887 271.13809586 -197.875 262.125 C-196.56711802 256.41787863 -193.56661628 250.85034287 -188.78515625 247.3828125 C-186.18288433 246.12276504 -184.17344031 245.52112403 -181.3125 245.1875 C-180.10980469 245.01927734 -180.10980469 245.01927734 -178.8828125 244.84765625 C-175.07034251 245.23995389 -172.33101416 247.08076999 -169.1875 249.125 C-168.11371094 249.82238281 -167.03992188 250.51976562 -165.93359375 251.23828125 C-164.29583984 252.32689453 -164.29583984 252.32689453 -162.625 253.4375 C-153.53819209 259.35732062 -143.9859683 265.18127571 -133.1875 267.125 C-133.1875 267.785 -133.1875 268.445 -133.1875 269.125 C-132.64222656 269.24617188 -132.09695312 269.36734375 -131.53515625 269.4921875 C-124.1875 271.125 -124.1875 271.125 -122.17700195 271.63061523 C-116.80426603 272.93396334 -111.77315848 273.47786627 -106.25 273.4375 C-105.43587646 273.43258545 -104.62175293 273.4276709 -103.78295898 273.42260742 C-87.72112417 273.12072233 -72.04534445 270.35283081 -59.1875 260.125 C-59.5175 258.475 -59.8475 256.825 -60.1875 255.125 C-58.888125 254.75375 -58.888125 254.75375 -57.5625 254.375 C-52.38224541 252.45638719 -48.62084624 250.42940642 -45.9375 245.5 C-40.23785324 232.72329186 -41.54449981 219.26825542 -46.18359375 206.3515625 C-50.58394946 196.698187 -58.70747103 188.39868659 -67.1875 182.125 C-68.1775 181.795 -69.1675 181.465 -70.1875 181.125 C-70.80028809 180.35728271 -71.41307617 179.58956543 -72.04443359 178.79858398 C-74.3131835 175.96820347 -76.45627237 174.33502301 -79.4765625 172.34765625 C-80.50136719 171.66896484 -81.52617188 170.99027344 -82.58203125 170.29101562 C-84.18111328 169.24977539 -84.18111328 169.24977539 -85.8125 168.1875 C-86.85535156 167.49720703 -87.89820312 166.80691406 -88.97265625 166.09570312 C-99.07338713 158.65375167 -99.07338713 158.65375167 -110.31958008 153.60864258 C-113.37721669 152.81695808 -115.01894201 150.34817352 -117.1875 148.125 C-119.21981255 146.66535744 -121.28449129 145.24999964 -123.375 143.875 C-132.5745699 137.64105517 -140.0457028 130.98397893 -146.30078125 121.703125 C-148.1341653 119.01808482 -148.1341653 119.01808482 -150.74609375 116.796875 C-153.81242541 113.44108164 -154.75193066 110.43760794 -155.9375 106.125 C-156.14503906 105.42632812 -156.35257813 104.72765625 -156.56640625 104.0078125 C-158.53694848 97.26982939 -159.39138924 91.29251642 -159.4375 84.3125 C-159.458125 83.54357422 -159.47875 82.77464844 -159.5 81.98242188 C-159.5374631 76.43319997 -158.49606657 72.15497654 -156.1875 67.125 C-155.72988281 66.114375 -155.27226562 65.10375 -154.80078125 64.0625 C-152.88009337 60.56526686 -150.70272547 57.36050308 -148.375 54.125 C-147.96185547 53.53460938 -147.54871094 52.94421875 -147.12304688 52.3359375 C-144.15080351 48.17754463 -140.96332975 44.57959458 -137.1875 41.125 C-136.5275 41.125 -135.8675 41.125 -135.1875 41.125 C-134.8575 40.135 -134.5275 39.145 -134.1875 38.125 C-132.54033558 37.41150746 -130.87016153 36.7501979 -129.1875 36.125 C-127.80649722 35.16240004 -126.45391327 34.15832322 -125.125 33.125 C-119.92967687 29.38468365 -114.40073811 26.53778396 -108.6875 23.6875 C-107.79023193 23.23826172 -106.89296387 22.78902344 -105.96850586 22.32617188 C-99.45759523 19.125 -99.45759523 19.125 -97.1875 19.125 C-97.1875 18.465 -97.1875 17.805 -97.1875 17.125 C-93.18887532 15.82904934 -89.18836418 14.53901867 -85.1875 13.25 C-84.06214844 12.88519531 -82.93679687 12.52039062 -81.77734375 12.14453125 C-66.17116477 7.125 -66.17116477 7.125 -60.1875 7.125 C-60.1875 6.465 -60.1875 5.805 -60.1875 5.125 C-59.52032959 5.07746582 -58.85315918 5.02993164 -58.16577148 4.98095703 C-53.36782924 4.59785934 -48.68842353 4.09409517 -43.97265625 3.1171875 C-29.25509686 0.16145756 -14.95716909 -0.22456147 0 0 Z " fill="#988767" transform="translate(204.1875,3.875)"/>
<path d="M0 0 C4.93341348 4.504421 7.59466252 9.90862479 8.25 16.5234375 C8.36693946 21.39104269 8.20158906 25.56707067 6 30 C3.45339514 31.44016969 1.27327992 32.44986837 -1.4375 33.4375 C-8.56699454 36.26951154 -14.68622915 39.59908769 -21 44 C-21.309375 42.081875 -21.309375 42.081875 -21.625 40.125 C-23.17355155 33.3898614 -25.89579902 27.30910656 -31.546875 23.10546875 C-33.28046978 22.0758337 -35.04011032 21.08818492 -36.828125 20.15625 C-39 19 -39 19 -41 17 C-34.73944308 10.96426971 -27.5987001 6.87667167 -19.9375 2.875 C-19.00405762 2.36541748 -18.07061523 1.85583496 -17.10888672 1.33081055 C-10.99156422 -1.76452659 -6.43124864 -2.98368179 0 0 Z " fill="#988767" transform="translate(114,25)"/>
<path d="M0 0 C5.14106727 -0.1489943 10.28086202 -0.25751582 15.42358398 -0.32958984 C17.17055163 -0.35965146 18.91736972 -0.40051371 20.66381836 -0.45263672 C23.18380707 -0.5259298 25.7017914 -0.55956001 28.22265625 -0.5859375 C28.99585709 -0.61690521 29.76905792 -0.64787292 30.56568909 -0.67977905 C35.97594244 -0.6830913 38.70112422 0.74529088 42.63694763 4.43344116 C46.22934686 8.56219284 46.39108272 13.52011638 46.25 18.7578125 C45.71245694 23.57890178 44.07463892 26.95364105 40.625 30.3125 C35.34005903 33.70996205 31.38580443 34.21813918 25.1875 33.625 C24.14819336 33.53992187 24.14819336 33.53992187 23.08789062 33.453125 C21.39101554 33.31269396 19.69534752 33.15780593 18 33 C17.92523438 31.96101563 17.85046875 30.92203125 17.7734375 29.8515625 C17.02380674 21.27405673 16.1483651 13.55908585 10 7 C7.40396789 5.11303338 4.82186732 3.53999877 1.9765625 2.05859375 C1.32429687 1.70925781 0.67203125 1.35992187 0 1 C0 0.67 0 0.34 0 0 Z " fill="#988767" transform="translate(188,5)"/>
<path d="M0 0 C6.71746627 0.29206375 11.74114324 2.85009492 17 7 C24.1662171 15.10797869 25.78322813 24.42820242 26 35 C25 36 25 36 22.4375 36.0625 C21.633125 36.041875 20.82875 36.02125 20 36 C20.33 35.34 20.66 34.68 21 34 C21.90827708 25.42348204 20.62871245 18.02437108 15.52734375 10.9609375 C11.16710408 6.11622675 6.12140982 3.98299191 0 2 C0 1.34 0 0.68 0 0 Z " fill="#F2E37A" transform="translate(181,4)"/>
<path d="M0 0 C4.75364364 0.46604349 8.20163033 1.02289945 12 4 C19.06320511 12.67765199 18.24710711 22.4567631 18 33 C16.68 33 15.36 33 14 33 C14.04640625 32.03320312 14.0928125 31.06640625 14.140625 30.0703125 C14.36213587 22.08009903 14.3172483 15.02253701 10 8 C6.99105846 4.91390611 4.05715359 3.39102409 0 2 C0 1.34 0 0.68 0 0 Z " fill="#F1E27A" transform="translate(107,21)"/>
<path d="M0 0 C5.88755294 0.81771569 9.05914325 3.70884487 13 8 C16.82054929 13.5853239 19.12920572 18.6912281 19.1875 25.5 C19.20167969 26.2528125 19.21585938 27.005625 19.23046875 27.78125 C18.97417278 30.24864173 18.22845153 31.86356256 17 34 C16.01 34 15.02 34 14 34 C14.23589844 33.13761719 14.23589844 33.13761719 14.4765625 32.2578125 C16.14845073 25.04623492 14.97043224 19.67682881 11.42578125 13.2265625 C8.9093298 9.29676161 5.8385484 6.65220431 2.1875 3.8125 C1.465625 3.214375 0.74375 2.61625 0 2 C0 1.34 0 0.68 0 0 Z " fill="#F3E47A" transform="translate(144,9)"/>
<path d="M0 0 C0.99 0 1.98 0 3 0 C3.29979969 5.09659468 2.99672798 7.85727056 0 12 C-9.95523589 19.79886711 -19.64572002 21.51555728 -32 21 C-32 20.01 -32 19.02 -32 18 C-30.47632813 17.99613281 -30.47632813 17.99613281 -28.921875 17.9921875 C-19.54211283 17.79441799 -11.89964918 16.59394726 -4 11 C-0.85298502 7.52862163 -0.44612673 4.63971795 0 0 Z " fill="#EFDF7A" transform="translate(166,164)"/>
<path d="M0 0 C0 0.66 0 1.32 0 2 C-1.37939274 3.09054554 -2.80508661 4.12288265 -4.25 5.125 C-8.71649224 8.54344918 -11.56598825 11.48531054 -13 17 C-13.70570469 23.35134224 -13.13428984 28.99730984 -11 35 C-12.98 35.495 -12.98 35.495 -15 36 C-17.72469087 28.74142351 -18.7481008 20.08634056 -15.625 12.75 C-12.53386328 7.52742966 -6.30738214 0 0 0 Z " fill="#F3E47A" transform="translate(71,271)"/>
<path d="M0 0 C0.99 0 1.98 0 3 0 C2.835 1.27875 2.67 2.5575 2.5 3.875 C1.14844412 16.07458001 1.14844412 16.07458001 6.4375 26.8125 C7.97127949 28.14523614 7.97127949 28.14523614 10.125 28.5 C10.74375 28.665 11.3625 28.83 12 29 C12.33 29.99 12.66 30.98 13 32 C9.470224 32.32835126 7.48765353 32.27865916 4.375 30.5 C-1.49193726 24.32427657 -2.43845055 18.85905217 -2.23828125 10.44140625 C-2 8 -2 8 -1 7 C-0.63239269 4.67182036 -0.29758419 2.3381615 0 0 Z " fill="#F2E37A" transform="translate(109,279)"/>
<path d="M0 0 C6.62772337 1.03964288 12.5070404 4.09919425 16.91015625 9.22265625 C21.13905214 15.4465104 23.29941596 20.3648929 23 28 C22.01 28 21.02 28 20 28 C19.91363281 27.443125 19.82726562 26.88625 19.73828125 26.3125 C18.10448056 17.43901368 14.46198273 11.26728193 7 6 C4.37100696 4.55001288 1.7253069 3.26867735 -1 2 C-0.67 1.34 -0.34 0.68 0 0 Z " fill="#F2E37A" transform="translate(70,42)"/>
<path d="M0 0 C0.99 0 1.98 0 3 0 C2.58726322 5.26239391 1.88050973 8.32372763 -2 12 C-9.08060606 16.56305724 -18.90528286 15.88720668 -26.9609375 14.484375 C-27.63382813 14.32453125 -28.30671875 14.1646875 -29 14 C-28.67 13.01 -28.34 12.02 -28 11 C-27.42032471 11.01571045 -26.84064941 11.0314209 -26.2434082 11.04760742 C-23.59987261 11.11022791 -20.95649345 11.14907518 -18.3125 11.1875 C-17.40048828 11.21263672 -16.48847656 11.23777344 -15.54882812 11.26367188 C-8.77431582 11.34323075 -8.77431582 11.34323075 -3 8 C-1.0549 5.08235 -0.54723683 3.37462715 0 0 Z " fill="#EEDF7A" transform="translate(191,213)"/>
<path d="M0 0 C1.33203125 1.609375 1.33203125 1.609375 2.8125 3.75 C7.08816974 9.59169817 11.73512612 13.52739043 19 15 C24.01546566 15.23907392 28.98384409 15.17634923 34 15 C34 15.66 34 16.32 34 17 C26.27231491 19.57589503 17.24802491 18.6172386 10 15 C4.7129177 11.69922486 0.18283957 7.60112352 -4 3 C-4 2.34 -4 1.68 -4 1 C-2 0 -2 0 0 0 Z " fill="#F4E57B" transform="translate(148,258)"/>
<path d="M0 0 C2.97973615 -0.08184423 5.95716832 -0.14089764 8.9375 -0.1875 C9.76830078 -0.21263672 10.59910156 -0.23777344 11.45507812 -0.26367188 C18.92553116 -0.35087561 26.33853827 0.80377943 32.0625 6 C32.63097656 6.495 33.19945312 6.99 33.78515625 7.5 C35 9 35 9 35 12 C33.68 12 32.36 12 31 12 C30.46375 11.2575 29.9275 10.515 29.375 9.75 C24.91725972 4.58840599 19.21852396 3.11642255 12.56640625 2.53125 C8.37951438 2.24656406 4.19511559 2.09733447 0 2 C0 1.34 0 0.68 0 0 Z " fill="#F1E17A" transform="translate(45,79)"/>
<path d="M0 0 C1.32 0.33 2.64 0.66 4 1 C4.74649116 6.84751408 3.34874533 10.09798699 -0.09375 14.84765625 C-4.13012993 19.40512622 -8.94539273 22.95867219 -15.0625 23.875 C-16.031875 23.91625 -17.00125 23.9575 -18 24 C-15 22 -15 22 -12.66015625 20.73828125 C-6.80959181 17.52706919 -3.45111995 15.28765553 -1 9 C-0.448966 6.00045839 -0.13810972 3.04531942 0 0 Z " fill="#E9D979" transform="translate(115,132)"/>
<path d="M0 0 C0.99 0 1.98 0 3 0 C1.52434066 3.89037461 -0.37038486 5.09127931 -4 7 C-11.81588297 9.58051571 -24.22700652 12.88649674 -32 9 C-32 8.34 -32 7.68 -32 7 C-30.74445312 7.03480469 -29.48890625 7.06960937 -28.1953125 7.10546875 C-15.18209425 7.78189681 -15.18209425 7.78189681 -3 4 C-2.484375 3.30390625 -1.96875 2.6078125 -1.4375 1.890625 C-0.963125 1.26671875 -0.48875 0.6428125 0 0 Z " fill="#EDDD7A" transform="translate(83,109)"/>
<path d="M0 0 C1.010625 0.33 2.02125 0.66 3.0625 1 C9.5500484 2.66588042 16.35388026 2.15576843 23 2 C23 2.66 23 3.32 23 4 C15.00703955 6.66432015 6.59710939 5.2230161 -1 2 C-0.67 1.34 -0.34 0.68 0 0 Z " fill="#EBDA79" transform="translate(159,271)"/>
<path d="M0 0 C5.28 0 10.56 0 16 0 C13 3 13 3 9.86328125 3.29296875 C8.69152344 3.25816406 7.51976562 3.22335938 6.3125 3.1875 C4.54326172 3.14689453 4.54326172 3.14689453 2.73828125 3.10546875 C1.83464844 3.07066406 0.93101562 3.03585938 0 3 C0 2.01 0 1.02 0 0 Z " fill="#E6D678" transform="translate(134,182)"/>
<path d="M0 0 C5.94 0.33 11.88 0.66 18 1 C18 1.33 18 1.66 18 2 C14.37 2 10.74 2 7 2 C7 2.66 7 3.32 7 4 C4.36 3.67 1.72 3.34 -1 3 C-0.67 2.01 -0.34 1.02 0 0 Z " fill="#E3D377" transform="translate(163,224)"/>
<path d="M0 0 C0 0.66 0 1.32 0 2 C-2.76452033 3.38226016 -5.0461363 3.09525387 -8.125 3.0625 C-9.22070312 3.05347656 -10.31640625 3.04445312 -11.4453125 3.03515625 C-12.70988281 3.01775391 -12.70988281 3.01775391 -14 3 C-14 2.34 -14 1.68 -14 1 C-12.22932584 0.83165067 -10.45845388 0.66538091 -8.6875 0.5 C-7.70136719 0.4071875 -6.71523437 0.314375 -5.69921875 0.21875 C-3 0 -3 0 0 0 Z " fill="#F9EB7B" transform="translate(184,225)"/>
<path d="M0 0 C0.99 0 1.98 0 3 0 C3.125 3.375 3.125 3.375 3 7 C2.34 7.66 1.68 8.32 1 9 C0.34 9 -0.32 9 -1 9 C-0.67 6.03 -0.34 3.06 0 0 Z " fill="#F7E97B" transform="translate(166,164)"/>
<path d="M0 0 C1.68496298 0.96885372 3.35178756 1.96986723 5 3 C5 3.33 5 3.66 5 4 C3.35 4 1.7 4 0 4 C0 2.68 0 1.36 0 0 Z " fill="#8C8865" transform="translate(0,313)"/>
</svg>
