<?xml version="1.0" encoding="UTF-8"?>
<svg version="1.1" xmlns="http://www.w3.org/2000/svg" width="1072" height="550">
<path d="M0 0 C0.67923523 0.02301178 1.35847046 0.04602356 2.05828857 0.06973267 C16.211525 0.57467118 16.211525 0.57467118 18.88671875 3.44140625 C21.61586782 7.93785529 21.7242366 13.50601165 20.625 18.5625 C18.39790403 22.00437559 15.91722513 24.26347086 11.8972168 25.28588867 C9.2970685 25.6803592 6.83524365 25.8288851 4.20703125 25.86328125 C-7.21648858 26.10959531 -18.38638178 26.81463508 -29.6875 28.5625 C-30.74541748 28.72403564 -31.80333496 28.88557129 -32.89331055 29.05200195 C-41.95952142 30.53577337 -50.37601871 32.88114487 -58.75 36.6875 C-59.42417969 36.96207031 -60.09835937 37.23664063 -60.79296875 37.51953125 C-70.00380592 41.35058742 -80.68482932 46.2905592 -84.6953125 55.96875 C-85.77974211 59.66722572 -86.2454667 62.39544245 -84.84375 66.05078125 C-77.26353058 78.24230082 -64.29718068 85.33079147 -51.57421875 91.13671875 C-48.34234941 92.91134133 -46.31625137 95.05072569 -43.75 97.6875 C-41.5034759 99.47064006 -39.16561752 101.11117649 -36.8125 102.75 C-35.92014648 103.38131836 -35.92014648 103.38131836 -35.00976562 104.02539062 C-32.16341323 106.03183575 -29.29727189 107.97956705 -26.36328125 109.85546875 C-23.75 111.6875 -23.75 111.6875 -22.875 113.9375 C-22.83375 114.515 -22.7925 115.0925 -22.75 115.6875 C-22.09 115.6875 -21.43 115.6875 -20.75 115.6875 C-20.37488281 116.41195312 -19.99976563 117.13640625 -19.61328125 117.8828125 C-16.39723494 124.02874097 -16.39723494 124.02874097 -12.1875 129.5 C-4.73464377 138.06594514 -3.7789389 150.09610338 -4.265625 160.921875 C-5.08416225 171.11638444 -8.27823426 180.80572484 -14.515625 188.98828125 C-15.94906792 190.78183306 -15.94906792 190.78183306 -16.75 193.6875 C-18.30859375 195.07421875 -18.30859375 195.07421875 -20.1875 196.375 C-20.80496094 196.81199219 -21.42242188 197.24898437 -22.05859375 197.69921875 C-23.75 198.6875 -23.75 198.6875 -25.75 198.6875 C-25.75 199.3475 -25.75 200.0075 -25.75 200.6875 C-42.50141603 214.39565234 -61.76283523 216.21290856 -82.75 214.6875 C-89.82162399 213.93532969 -96.98813308 212.94145564 -103.75 210.6875 C-103.75 210.0275 -103.75 209.3675 -103.75 208.6875 C-104.9875 208.336875 -106.225 207.98625 -107.5 207.625 C-118.16366142 204.04254546 -130.53933983 197.00349025 -136.875 187.5 C-138.28400845 182.97104426 -138.37670862 180.91584889 -136.1875 176.625 C-133.16488621 172.98236287 -131.09978959 171.5624093 -126.75 169.6875 C-122.91515643 169.83788602 -120.0608128 170.77741569 -116.75 172.6875 C-116.75 173.3475 -116.75 174.0075 -116.75 174.6875 C-115.7909375 175.0278125 -115.7909375 175.0278125 -114.8125 175.375 C-112.3328322 176.43771477 -110.23986414 177.56578497 -107.9375 178.9375 C-103.64667116 181.36776776 -99.23314634 183.15536044 -94.625 184.875 C-93.95621826 185.12475586 -93.28743652 185.37451172 -92.59838867 185.63183594 C-77.21066664 191.2521943 -63.10302522 190.80147967 -47.95703125 184.53125 C-46.18503732 183.65309372 -44.45825702 182.68398326 -42.75 181.6875 C-42.75 180.6975 -42.75 179.7075 -42.75 178.6875 C-41.75 176.6875 -41.75 176.6875 -38.375 175.3125 C-34.10280534 173.42864766 -34.10280534 173.42864766 -31.75 169.6875 C-28.75476191 160.93494797 -29.70038184 152.32808478 -32.75 143.6875 C-33.72236487 142.0045608 -34.71564444 140.33306566 -35.75 138.6875 C-35.75 138.0275 -35.75 137.3675 -35.75 136.6875 C-36.41 136.6875 -37.07 136.6875 -37.75 136.6875 C-37.75 136.0275 -37.75 135.3675 -37.75 134.6875 C-38.41 134.6875 -39.07 134.6875 -39.75 134.6875 C-41.44559522 133.05027295 -43.10700404 131.37750586 -44.75 129.6875 C-51.11161791 124.00973352 -57.45753342 118.91487186 -64.984375 114.84375 C-65.85835937 114.27140625 -65.85835937 114.27140625 -66.75 113.6875 C-66.75 113.0275 -66.75 112.3675 -66.75 111.6875 C-67.32234375 111.56503906 -67.8946875 111.44257813 -68.484375 111.31640625 C-70.84953191 110.65987132 -72.82206797 109.75026488 -75 108.625 C-75.70640625 108.26277344 -76.4128125 107.90054688 -77.140625 107.52734375 C-77.67171875 107.25019531 -78.2028125 106.97304688 -78.75 106.6875 C-78.75 106.0275 -78.75 105.3675 -78.75 104.6875 C-79.44996094 104.44644531 -80.14992188 104.20539063 -80.87109375 103.95703125 C-84.23469359 102.47376131 -86.87565466 100.58413145 -89.8125 98.375 C-90.83472656 97.61574219 -91.85695313 96.85648437 -92.91015625 96.07421875 C-95.63552483 93.78370953 -97.63773679 91.53860206 -99.75 88.6875 C-100.27722656 88.006875 -100.80445313 87.32625 -101.34765625 86.625 C-109.90327598 75.30876697 -111.77827591 65.62514854 -110.75 51.6875 C-109.5743023 44.24917495 -104.23687837 38.48415745 -99.75 32.6875 C-99.29238281 32.03910156 -98.83476563 31.39070313 -98.36328125 30.72265625 C-95.28824625 26.54428643 -92.65391345 25.64905166 -87.75 24.6875 C-87.75 24.0275 -87.75 23.3675 -87.75 22.6875 C-84.98456804 21.17737869 -82.21183193 19.68119852 -79.4375 18.1875 C-78.65181641 17.75824219 -77.86613281 17.32898438 -77.05664062 16.88671875 C-75.9206543 16.27763672 -75.9206543 16.27763672 -74.76171875 15.65625 C-73.71697388 15.09067383 -73.71697388 15.09067383 -72.65112305 14.51367188 C-70.75 13.6875 -70.75 13.6875 -67.75 13.6875 C-67.75 13.0275 -67.75 12.3675 -67.75 11.6875 C-62.75586216 10.00281084 -57.75568285 8.33755486 -52.75 6.6875 C-51.36361328 6.22730469 -51.36361328 6.22730469 -49.94921875 5.7578125 C-44.67098313 4.0819079 -39.42748549 2.97514842 -33.94921875 2.1640625 C-31.86072714 1.8529563 -29.77847799 1.49544045 -27.70703125 1.0859375 C-18.44999691 -0.54191145 -9.35406502 -0.32527118 0 0 Z " fill="#998867" transform="translate(613.75,211.3125)"/>
<path d="M0 0 C9.57 0 19.14 0 29 0 C31.9119572 5.8239144 34.77909623 11.59615219 37.5 17.5 C39.50168591 21.83625851 41.55587808 26.13214979 43.75 30.375 C45.98896882 34.77904428 47.59457031 39.26952935 49 44 C51.54606869 39.78581733 53.54385515 35.76895155 55.18164062 31.13305664 C55.94720838 29.13760155 56.81818334 27.2945186 57.80078125 25.3984375 C60.72324151 19.63443637 63.29159055 13.71390517 65.90820312 7.80664062 C66.29298828 6.94361328 66.67777344 6.08058594 67.07421875 5.19140625 C67.42057373 4.40967041 67.76692871 3.62793457 68.1237793 2.82250977 C69 1 69 1 70 0 C72.14558827 -0.08775605 74.29404421 -0.10695219 76.44140625 -0.09765625 C77.74658203 -0.09443359 79.05175781 -0.09121094 80.39648438 -0.08789062 C81.7851569 -0.07953401 83.17382877 -0.07106905 84.5625 -0.0625 C85.95507656 -0.05748666 87.34765481 -0.05292347 88.74023438 -0.04882812 C92.1601987 -0.03699434 95.58007844 -0.0205088 99 0 C100.17991728 4.21827095 100.14766112 8.3171688 100.14526367 12.66821289 C100.14862228 13.54179947 100.1519809 14.41538605 100.15544128 15.31544495 C100.16493555 18.20119653 100.16689339 21.08689003 100.16796875 23.97265625 C100.1711815 25.97757491 100.17454559 27.98249333 100.17805481 29.9874115 C100.18404163 34.18798364 100.18589508 38.38853522 100.18530273 42.58911133 C100.18520093 47.978537 100.19887362 53.36783146 100.21607494 58.75722599 C100.22717583 62.89640411 100.22922256 67.03555026 100.22869301 71.17474174 C100.22987523 73.16231172 100.23431047 75.14988247 100.24202538 77.13743782 C100.25179021 79.91211372 100.24896156 82.6865014 100.24291992 85.46118164 C100.24853943 86.2856781 100.25415894 87.11017456 100.25994873 87.95965576 C100.23844965 91.83261315 100.19899096 93.70151356 98 97 C95.67749023 97.35644531 95.67749023 97.35644531 92.80859375 97.328125 C91.78185547 97.32296875 90.75511719 97.3178125 89.69726562 97.3125 C88.62154297 97.291875 87.54582031 97.27125 86.4375 97.25 C84.81811523 97.24226563 84.81811523 97.24226563 83.16601562 97.234375 C75.1537996 97.1537996 75.1537996 97.1537996 74 96 C73.9064081 94.28134591 73.88255389 92.55884256 73.88647461 90.83764648 C73.88658791 89.18604774 73.88658791 89.18604774 73.88670349 87.50108337 C73.89186478 86.3031868 73.89702606 85.10529022 73.90234375 83.87109375 C73.9037587 82.65172623 73.90517365 81.4323587 73.90663147 80.17604065 C73.91225033 76.2631693 73.92480604 72.35035419 73.9375 68.4375 C73.94251257 65.79231853 73.9470759 63.14713617 73.95117188 60.50195312 C73.96222589 54.00128274 73.97898236 47.50064539 74 41 C73.34 41 72.68 41 72 41 C71.82984375 41.54527344 71.6596875 42.09054687 71.484375 42.65234375 C68.99498983 50.39856888 65.76550225 57.66319308 62.02734375 64.8828125 C60.57693959 67.87185834 59.30874121 70.94627052 58 74 C52.06 74 46.12 74 40 74 C35.98777001 66.26212788 32.52490717 58.56876738 29.39453125 50.4453125 C28.09166523 47.22646705 26.55296013 44.10592027 25 41 C24.67 59.15 24.34 77.3 24 96 C21.56283785 97.21858107 19.96725943 97.12925575 17.24609375 97.1328125 C16.30958984 97.13410156 15.37308594 97.13539063 14.40820312 97.13671875 C12.93770508 97.13091797 12.93770508 97.13091797 11.4375 97.125 C9.96120117 97.13080078 9.96120117 97.13080078 8.45507812 97.13671875 C7.51986328 97.13542969 6.58464844 97.13414062 5.62109375 97.1328125 C4.7592749 97.13168457 3.89745605 97.13055664 3.00952148 97.12939453 C1 97 1 97 0 96 C-0.0952822 93.01701786 -0.12552175 90.05723655 -0.11352539 87.07397461 C-0.11367142 86.13748581 -0.11381744 85.20099701 -0.1139679 84.23612976 C-0.11326837 81.12484461 -0.10547415 78.01361851 -0.09765625 74.90234375 C-0.09579221 72.75142957 -0.09436824 70.60051497 -0.09336853 68.44960022 C-0.08954225 62.77618242 -0.07971102 57.10279005 -0.06866455 51.42938232 C-0.0584528 45.64498234 -0.05387142 39.86057827 -0.04882812 34.07617188 C-0.03808885 22.71743493 -0.02049116 11.35872355 0 0 Z " fill="#2B915D" transform="translate(201,270)"/>
<path d="M0 0 C1.23532471 0.01885254 1.23532471 0.01885254 2.49560547 0.03808594 C5.26888326 0.08688846 8.04010114 0.16534291 10.8125 0.25 C11.68438965 0.26401855 12.5562793 0.27803711 13.45458984 0.29248047 C23.51393531 0.67738975 31.18062315 4.64062725 38 12 C43.2759406 19.15149173 43.8075184 26.79539659 42.69140625 35.37109375 C41.12092169 43.61266315 36.85521205 49.23849803 30 54 C29.34 54 28.68 54 28 54 C28 54.66 28 55.32 28 56 C27.34 56 26.68 56 26 56 C28.05343089 59.76462329 30.50116999 62.82231746 33.3046875 66.02734375 C35.21460157 68.2497092 37.05435986 70.51642954 38.875 72.8125 C39.76832031 73.93591797 39.76832031 73.93591797 40.6796875 75.08203125 C42 77 42 77 42 79 C42.66 79 43.32 79 44 79 C46.09964356 81.22978333 47.8235077 83.77637733 49.625 86.25 C50.140625 86.93191406 50.65625 87.61382812 51.1875 88.31640625 C51.67476562 88.98027344 52.16203125 89.64414062 52.6640625 90.328125 C53.11217285 90.9355957 53.5602832 91.54306641 54.02197266 92.16894531 C55 94 55 94 55 98 C50.45867203 98.1455841 45.91794659 98.23417333 41.375 98.3125 C40.08980469 98.35439453 38.80460938 98.39628906 37.48046875 98.43945312 C26.81376098 98.57762291 26.81376098 98.57762291 23.32421875 95.8203125 C21.11777278 93.14291084 19.19690523 90.55136912 17.4375 87.5625 C15.47385194 84.32466253 13.5523672 81.29311041 11.0625 78.4375 C9 76 9 76 9 74 C8.34 74 7.68 74 7 74 C5.02141859 71.49379688 3.1974386 68.89855479 1.36328125 66.28515625 C-1.67526868 63.34705425 -3.88583442 63.43835294 -8 63 C-7.99214478 64.49164673 -7.99214478 64.49164673 -7.98413086 66.01342773 C-7.96607959 69.69033921 -7.95456754 73.36724675 -7.94506836 77.04418945 C-7.94002843 78.63794614 -7.9331965 80.23169819 -7.92456055 81.82543945 C-7.91248001 84.11150253 -7.90676845 86.39750467 -7.90234375 88.68359375 C-7.89718246 89.40026718 -7.89202118 90.11694061 -7.88670349 90.85533142 C-7.88650737 92.57063672 -7.93807993 94.28581266 -8 96 C-9.71567792 97.71567792 -11.97372735 97.13015825 -14.3125 97.1328125 C-15.38757813 97.13410156 -16.46265625 97.13539063 -17.5703125 97.13671875 C-18.70210937 97.13285156 -19.83390625 97.12898438 -21 97.125 C-22.13179687 97.12886719 -23.26359375 97.13273437 -24.4296875 97.13671875 C-25.50476563 97.13542969 -26.57984375 97.13414062 -27.6875 97.1328125 C-28.68136719 97.13168457 -29.67523437 97.13055664 -30.69921875 97.12939453 C-33 97 -33 97 -34 96 C-34.10058243 93.08342371 -34.13615211 90.19049054 -34.12939453 87.2734375 C-34.13114685 86.35806213 -34.13289917 85.44268677 -34.13470459 84.49957275 C-34.13912461 81.45802951 -34.13618459 78.41654389 -34.1328125 75.375 C-34.1334855 73.2713215 -34.13445548 71.16764308 -34.13571167 69.06396484 C-34.13718885 64.64875551 -34.13503345 60.23356637 -34.13037109 55.81835938 C-34.1246738 50.14507439 -34.1279527 44.47183671 -34.13394356 38.79855347 C-34.13754864 34.45271444 -34.13641083 30.10688672 -34.13381577 25.76104736 C-34.13314635 23.6685587 -34.13397543 21.57606903 -34.13629532 19.48358154 C-34.13882098 16.56454734 -34.13498248 13.64559088 -34.12939453 10.7265625 C-34.13141876 9.8527594 -34.13344299 8.9789563 -34.13552856 8.07867432 C-34.11426236 2.11426236 -34.11426236 2.11426236 -33 1 C-30.09866205 0.75596223 -27.21945495 0.57238449 -24.3125 0.4375 C-23.44544434 0.3957666 -22.57838867 0.3540332 -21.68505859 0.31103516 C-14.44843832 -0.01662553 -7.24379502 -0.16344973 0 0 Z M-8 20 C-8 27.92 -8 35.84 -8 44 C-5.64875 44.061875 -3.2975 44.12375 -0.875 44.1875 C-0.14651855 44.21481201 0.58196289 44.24212402 1.33251953 44.27026367 C6.0064759 44.32921105 9.08283095 43.52629018 13 41 C15.95744545 38.02999639 16.4763013 35.70578412 16.5625 31.5625 C16.47528725 27.64018786 16.47528725 27.64018786 14.79296875 24.20703125 C8.15915149 18.48011559 0.24489906 19.92365834 -8 20 Z " fill="#2B925D" transform="translate(735,269)"/>
<path d="M0 0 C10.48904201 7.95560624 18.1598846 17.90320814 20.27734375 31.19921875 C20.60659726 35.80621843 20.64746014 40.3942623 20.65234375 45.01171875 C20.67683594 46.21892578 20.70132813 47.42613281 20.7265625 48.66992188 C20.76007791 58.9982541 18.1466219 67.19105417 13.27734375 76.19921875 C12.61734375 76.19921875 11.95734375 76.19921875 11.27734375 76.19921875 C11.11234375 76.87984375 10.94734375 77.56046875 10.77734375 78.26171875 C6.70329932 86.24005577 -2.2204301 91.20271513 -10.47265625 93.94921875 C-24.42227741 97.39356965 -38.61399361 95.83991601 -51.72265625 90.19921875 C-54.1640625 88.65625 -54.1640625 88.65625 -55.72265625 87.19921875 C-55.72265625 86.53921875 -55.72265625 85.87921875 -55.72265625 85.19921875 C-56.38265625 85.19921875 -57.04265625 85.19921875 -57.72265625 85.19921875 C-57.72265625 84.53921875 -57.72265625 83.87921875 -57.72265625 83.19921875 C-58.38265625 83.19921875 -59.04265625 83.19921875 -59.72265625 83.19921875 C-71.60665108 70.53692703 -74.36222636 57.48915244 -73.96875 40.63671875 C-73.3574022 26.40235202 -68.38727713 13.94239134 -57.96875 4.13671875 C-57.22753906 3.49734375 -56.48632812 2.85796875 -55.72265625 2.19921875 C-54.91699219 1.503125 -54.11132812 0.80703125 -53.28125 0.08984375 C-39.73318554 -9.9212451 -13.6169644 -9.00634231 0 0 Z M-41.66015625 20.88671875 C-48.20570638 31.39926895 -49.18813497 44.64625737 -46.47265625 56.51171875 C-44.38614235 64.02316878 -41.08671673 68.6170952 -34.72265625 73.19921875 C-30.01637054 75.402161 -26.7467665 75.47653492 -21.72265625 74.19921875 C-14.87228834 71.46378785 -10.76238711 67.95010698 -7.72265625 61.19921875 C-5.44447805 55.80565198 -5.33792902 50.77791737 -5.34765625 45.01171875 C-5.34854248 44.07787354 -5.34942871 43.14402832 -5.3503418 42.18188477 C-5.49841266 33.55243508 -6.93352573 25.90002336 -12.72265625 19.19921875 C-13.38265625 19.19921875 -14.04265625 19.19921875 -14.72265625 19.19921875 C-14.72265625 18.53921875 -14.72265625 17.87921875 -14.72265625 17.19921875 C-16.11281436 16.52079736 -17.51010895 15.85698975 -18.91015625 15.19921875 C-20.07611328 14.64234375 -20.07611328 14.64234375 -21.265625 14.07421875 C-29.00159442 11.31927892 -36.00718311 15.7148497 -41.66015625 20.88671875 Z " fill="#2B925D" transform="translate(167.72265625,273.80078125)"/>
<path d="M0 0 C9.10871212 6.788837 15.3918972 15.86360229 17.3828125 27.19921875 C17.97586721 31.41307758 18.27059194 35.61498377 18.5 39.86328125 C18.60441406 41.2709375 18.60441406 41.2709375 18.7109375 42.70703125 C19.24238951 55.29835578 14.8007124 69.27686068 6.5 78.86328125 C5.84 78.86328125 5.18 78.86328125 4.5 78.86328125 C4.5 79.52328125 4.5 80.18328125 4.5 80.86328125 C3.84 80.86328125 3.18 80.86328125 2.5 80.86328125 C2.5 81.52328125 2.5 82.18328125 2.5 82.86328125 C-6.97976671 91.41819267 -19.94464604 93.88154272 -32.33984375 93.2890625 C-43.58429688 92.36138858 -54.09665592 88.50268495 -62.5 80.86328125 C-62.5 80.20328125 -62.5 79.54328125 -62.5 78.86328125 C-63.16 78.86328125 -63.82 78.86328125 -64.5 78.86328125 C-65.16 77.21328125 -65.82 75.56328125 -66.5 73.86328125 C-67.16 73.86328125 -67.82 73.86328125 -68.5 73.86328125 C-75.20987393 61.13500895 -76.90256354 50.12553222 -76.5 35.86328125 C-76.48324219 35.08984375 -76.46648438 34.31640625 -76.44921875 33.51953125 C-75.6571814 21.02797082 -68.34913323 8.91210046 -59.4140625 0.4296875 C-43.16762013 -12.86587044 -16.69002238 -11.45068296 0 0 Z M-45.5 19.86328125 C-51.22464533 30.52426009 -51.72569856 46.13988158 -48.6171875 57.7734375 C-45.74711846 65.44279419 -42.12406191 68.43564875 -35 72.17578125 C-29.14168415 73.78681811 -24.653574 73.05557114 -19.42578125 70.203125 C-14.20858177 66.57330873 -10.31611956 61.40846305 -8.88671875 55.19921875 C-8.39390155 50.94804812 -8.31586181 46.76450283 -8.3125 42.48828125 C-8.29413086 41.27011719 -8.29413086 41.27011719 -8.27539062 40.02734375 C-8.25908996 33.24626879 -8.94326053 26.7540644 -12.625 20.86328125 C-13.553125 19.37828125 -13.553125 19.37828125 -14.5 17.86328125 C-15.16 17.86328125 -15.82 17.86328125 -16.5 17.86328125 C-16.5 17.20328125 -16.5 16.54328125 -16.5 15.86328125 C-26.37473676 9.98045935 -38.09766219 9.78787701 -45.5 19.86328125 Z " fill="#2B925D" transform="translate(867.5,276.13671875)"/>
<path d="M0 0 C1.0209375 -0.02449219 2.041875 -0.04898437 3.09375 -0.07421875 C15.21905269 -0.12038107 25.62105826 4.1235069 34.4453125 12.4453125 C44.96238379 23.58331788 47.71842308 37.89777993 47.68237305 52.88085938 C47.49129715 59.16131649 46.90467666 71.72032334 42.25 76.375 C40.83479382 76.48026327 39.41759312 76.55928376 38 76.625 C34.18355798 76.98962822 33.35658949 77.28617542 30.25 79.875 C29.59 80.7 28.93 81.525 28.25 82.375 C27.25 83.375 27.25 83.375 25.40234375 83.47265625 C23.3515625 83.44010417 21.30078125 83.40755208 19.25 83.375 C19.085 84.014375 18.92 84.65375 18.75 85.3125 C18.0075 86.3334375 18.0075 86.3334375 17.25 87.375 C15.23279033 87.63528512 13.2123762 87.88659528 11.18359375 88.03125 C9.02689489 88.21120001 9.02689489 88.21120001 7.4375 90.375 C4.22322888 93.31376216 1.04497468 92.99803377 -3.19140625 93.19921875 C-5.87030403 93.27595653 -5.87030403 93.27595653 -8.75 94.375 C-9.08 96.025 -9.41 97.675 -9.75 99.375 C-14.18497144 100.91407685 -16.87162866 99.52594429 -21.02734375 97.7265625 C-32.27518513 92.14298557 -39.60269361 84.11832975 -43.90234375 72.26171875 C-49.45844848 53.34023765 -48.24514179 36.2051961 -38.95703125 18.578125 C-38.55871094 17.85109375 -38.16039062 17.1240625 -37.75 16.375 C-37.09 16.375 -36.43 16.375 -35.75 16.375 C-35.481875 15.776875 -35.21375 15.17875 -34.9375 14.5625 C-33.75082594 12.37652146 -32.65400887 10.96167406 -30.75 9.375 C-30.09 9.375 -29.43 9.375 -28.75 9.375 C-28.75 8.715 -28.75 8.055 -28.75 7.375 C-27.23329636 6.57544999 -25.71138002 5.78578612 -24.1875 5 C-23.34058594 4.55914062 -22.49367188 4.11828125 -21.62109375 3.6640625 C-14.38195005 0.41383472 -7.81574184 0.00972107 0 0 Z M-13.9375 26.3125 C-20.98516019 35.20993976 -20.88138964 48.52952958 -19.75 59.375 C-18.38940361 66.49252844 -16.83776938 72.9205346 -10.75 77.375 C-5.7443941 80.63446431 -2.82577614 81.85720446 3.25 81.375 C8.83983639 79.64346819 13.25948915 77.58070407 16.25 72.375 C22.21592251 58.91948412 22.60140396 45.65212085 17.375 31.6875 C15.21495253 26.84546049 12.64235281 24.30323521 8.25 21.375 C-0.37431588 18.91090975 -7.54805422 19.87595757 -13.9375 26.3125 Z " fill="#2B925D" transform="translate(445.75,267.625)"/>
<path d="M0 0 C2.4375 2.375 2.4375 2.375 4 5 C4.5775 5.969375 5.155 6.93875 5.75 7.9375 C8.11489862 13.77867036 8.35802016 22.3467345 6.16796875 28.23828125 C3.16544032 32.76717865 0.1448095 33.76657738 -5.0625 34.9375 C-5.7642334 35.10515869 -6.4659668 35.27281738 -7.18896484 35.44555664 C-10.97052655 36.3394334 -14.76419068 37.16776946 -18.56640625 37.96875 C-37.45696839 41.96039736 -51.91665514 48.27578101 -66.56640625 61.05859375 C-69 63 -69 63 -71 63 C-70.835 63.825 -70.67 64.65 -70.5 65.5 C-69.94103955 69.41272317 -69.93192813 73.05183173 -70 77 C-71.32 77 -72.64 77 -74 77 C-78.59225513 67.58997722 -78.59225513 67.58997722 -78 63 C-78.99 63 -79.98 63 -81 63 C-81 62.01 -81 61.02 -81 60 C-82.65 59.34 -84.3 58.68 -86 58 C-86 57.34 -86 56.68 -86 56 C-86.70125 55.7525 -87.4025 55.505 -88.125 55.25 C-90.70893013 54.12655212 -92.77961666 52.78998876 -95.0859375 51.19921875 C-101.27759044 47.31995864 -108.10281089 44.37964042 -114.75 41.375 C-115.64976562 40.96765625 -116.54953125 40.5603125 -117.4765625 40.140625 C-119.03161076 39.43772393 -120.58852311 38.73890975 -122.1484375 38.046875 C-128.88353656 34.9056035 -135.11581756 30.99252504 -139.125 24.625 C-140.21350675 20.11547204 -140.37127467 16.45664267 -139 12 C-136.09664387 8.20950727 -133.48084442 6.46575686 -129 5 C-118.42531878 3.9574258 -110.55470298 5.54032632 -102 12 C-97.10318704 16.01876374 -93.24140221 19.53494456 -90 25 C-88.67186479 26.33851127 -87.3385518 27.67190564 -86 29 C-83.80800224 32.22223671 -81.91177551 35.60530674 -80 39 C-79.62617187 39.65097656 -79.25234375 40.30195313 -78.8671875 40.97265625 C-75.63017213 46.97515325 -73.87162651 53.46921812 -72 60 C-71.96261719 59.40316406 -71.92523437 58.80632812 -71.88671875 58.19140625 C-70.66125241 42.02005629 -68.15113562 25.72670344 -59 12 C-58.34 12 -57.68 12 -57 12 C-57 11.34 -57 10.68 -57 10 C-56.34 10 -55.68 10 -55 10 C-54.505 8.515 -54.505 8.515 -54 7 C-53.34 7 -52.68 7 -52 7 C-52 6.34 -52 5.68 -52 5 C-36.7684052 -6.85675124 -16.67264126 -10.9147272 0 0 Z " fill="#2B915D" transform="translate(724,147)"/>
<path d="M0 0 C2.50337861 2.89453152 2.94867588 4.64714669 3.5 8.4375 C2.85637226 13.02334763 1.31909796 14.8284175 -2 18 C-6.04335766 20.40415861 -10.40679459 20.78496404 -15 20 C-18.7685374 18.54138624 -22.36360467 16.75759108 -26 15 C-30.62428989 13.1677342 -35.0620657 12.68199486 -40 12.375 C-41.155 12.30023438 -42.31 12.22546875 -43.5 12.1484375 C-47.96316807 13.23434223 -49.84374907 14.94292 -52.66552734 18.49951172 C-55.14006196 23.1362083 -54.64808397 27.75494743 -54.3125 32.875 C-53.84732431 42.73672455 -54.30540092 50.7635023 -58 60 C-46.12 60.33 -34.24 60.66 -22 61 C-21.979375 64.114375 -21.95875 67.22875 -21.9375 70.4375 C-21.928396 71.42032959 -21.91929199 72.40315918 -21.90991211 73.41577148 C-21.90741455 74.18477783 -21.90491699 74.95378418 -21.90234375 75.74609375 C-21.89710693 76.53685303 -21.89187012 77.3276123 -21.88647461 78.14233398 C-22 80 -22 80 -23 81 C-24.85174706 81.15786308 -26.7090911 81.25107356 -28.56640625 81.31640625 C-29.69111328 81.35830078 -30.81582031 81.40019531 -31.97460938 81.44335938 C-33.15861328 81.48267578 -34.34261719 81.52199219 -35.5625 81.5625 C-36.75037109 81.60568359 -37.93824219 81.64886719 -39.16210938 81.69335938 C-42.10794784 81.79983546 -45.0538743 81.90184841 -48 82 C-48.00586624 82.92263641 -48.01173248 83.84527283 -48.01777649 84.79586792 C-48.0756071 93.47794308 -48.14762784 102.15975833 -48.23571491 110.84158134 C-48.2805009 115.30533937 -48.31973852 119.76900438 -48.34643555 124.23291016 C-48.37238692 128.53839118 -48.41273037 132.84351583 -48.46318626 137.14877701 C-48.47991052 138.79382022 -48.49139007 140.43892515 -48.49761391 142.0840416 C-48.50719512 144.38307071 -48.53517989 146.68117661 -48.56762695 148.97998047 C-48.57873001 150.2901413 -48.58983307 151.60030212 -48.60127258 152.95016479 C-48.73285263 153.95661041 -48.86443268 154.96305603 -49 156 C-52.16888263 158.11258842 -52.94029261 158.24900131 -56.5625 158.23046875 C-57.44164062 158.22853516 -58.32078125 158.22660156 -59.2265625 158.22460938 C-60.14179687 158.21236328 -61.05703125 158.20011719 -62 158.1875 C-63.37285156 158.1865332 -63.37285156 158.1865332 -64.7734375 158.18554688 C-71.57805488 158.14064837 -71.57805488 158.14064837 -75 157 C-76.49282393 154.01435214 -76.11916977 151.31016282 -76.11352539 147.97998047 C-76.11367142 147.25792419 -76.11381744 146.53586792 -76.1139679 145.79193115 C-76.11327007 143.40031959 -76.10548375 141.00878549 -76.09765625 138.6171875 C-76.09579161 136.96094811 -76.09436792 135.30470816 -76.09336853 133.64846802 C-76.08954699 129.28532392 -76.07971978 124.922213 -76.06866455 120.55908203 C-76.05844264 116.10840301 -76.05386924 111.65771863 -76.04882812 107.20703125 C-76.0380972 98.47133722 -76.02050332 89.73567656 -76 81 C-84.91 81 -93.82 81 -103 81 C-104.64838944 77.70322112 -104.14272738 74.05683956 -104.125 70.4375 C-104.12886719 69.64408203 -104.13273438 68.85066406 -104.13671875 68.03320312 C-104.12663067 62.12663067 -104.12663067 62.12663067 -103 61 C-100.19023482 60.83982834 -97.40226404 60.74049466 -94.58984375 60.68359375 C-93.32679161 60.6524221 -93.32679161 60.6524221 -92.03822327 60.62062073 C-89.33806821 60.55503188 -86.63781283 60.49619724 -83.9375 60.4375 C-82.11131759 60.39432363 -80.28514546 60.35070964 -78.45898438 60.30664062 C-73.97276008 60.19934106 -69.4864345 60.09810034 -65 60 C-64.48706593 55.62641851 -63.99213006 51.25096728 -63.5 46.875 C-63.35691406 45.65683594 -63.21382812 44.43867188 -63.06640625 43.18359375 C-62.22951896 35.65160814 -61.91133668 28.36649935 -62.2097168 20.78979492 C-62 18 -62 18 -59.3125 15.4375 C-58.219375 14.963125 -57.12625 14.48875 -56 14 C-53.46370722 11.64487099 -51.2954918 9.43553531 -49.3515625 6.5703125 C-46.28043734 3.21350127 -43.18608134 1.93798332 -39 0.3125 C-38.24323975 0.01214844 -37.48647949 -0.28820312 -36.70678711 -0.59765625 C-24.83544708 -5.14546487 -11.0961206 -7.90299237 0 0 Z " fill="#2B925D" transform="translate(715,209)"/>
<path d="M0 0 C1.74506836 0.00966797 1.74506836 0.00966797 3.52539062 0.01953125 C4.74033203 0.03628906 5.95527344 0.05304688 7.20703125 0.0703125 C8.43357422 0.07933594 9.66011719 0.08835937 10.92382812 0.09765625 C13.9559242 0.12125233 16.98763063 0.15417409 20.01953125 0.1953125 C21.89612044 4.46561915 23.58781398 8.68852347 25.01953125 13.1328125 C26.09140266 16.45114775 27.21457325 19.72763788 28.46875 22.98046875 C30.17363272 27.48317624 31.49879893 32.07166464 32.83203125 36.6953125 C34.8597068 43.59295671 37.09586162 50.33224016 39.6940918 57.03393555 C42.19480493 63.52668732 44.36558463 70.11931214 46.5390625 76.72753906 C48.37755167 82.30718805 50.29775908 87.84154199 52.390625 93.33203125 C53.01953125 95.1953125 53.01953125 95.1953125 53.01953125 97.1953125 C49.023957 99.19309962 43.9750113 98.42407755 39.58203125 98.4453125 C38.51919922 98.4659375 37.45636719 98.4865625 36.36132812 98.5078125 C35.34232422 98.51296875 34.32332031 98.518125 33.2734375 98.5234375 C32.33830322 98.5327832 31.40316895 98.54212891 30.43969727 98.55175781 C28.01953125 98.1953125 28.01953125 98.1953125 26.26416016 96.89379883 C24.23804616 94.12885667 23.62926192 90.91169508 22.83203125 87.6328125 C22.56616211 86.60510742 22.56616211 86.60510742 22.29492188 85.55664062 C21.01953125 80.53879102 21.01953125 80.53879102 21.01953125 78.1953125 C11.44953125 78.5253125 1.87953125 78.8553125 -7.98046875 79.1953125 C-9.30046875 83.1553125 -10.62046875 87.1153125 -11.98046875 91.1953125 C-12.64046875 93.1753125 -13.30046875 95.1553125 -13.98046875 97.1953125 C-22.23046875 97.1953125 -30.48046875 97.1953125 -38.98046875 97.1953125 C-38.1826736 92.40854162 -37.17235846 88.48454451 -35.60546875 83.9453125 C-33.88346522 78.90274303 -32.23057988 73.85478877 -30.75390625 68.734375 C-29.84418142 65.74790461 -28.85627448 62.79189885 -27.86376953 59.83203125 C-26.89089655 56.92793279 -25.92754283 54.02076775 -24.96484375 51.11328125 C-21.13995623 39.58567317 -17.31065416 28.06490284 -13.18847656 16.6394043 C-11.90198195 13.03225921 -10.79655363 9.51289588 -9.9765625 5.76953125 C-8.34809496 -0.07379345 -5.48202946 -0.05348321 0 0 Z M5.01953125 33.1953125 C4.76558594 34.16210938 4.51164063 35.12890625 4.25 36.125 C2.29773071 43.52212171 0.28920486 50.88765126 -1.98046875 58.1953125 C-0.81769843 59.58687734 -0.81769843 59.58687734 2.3984375 59.29296875 C3.79300202 59.28629619 5.18754868 59.27433782 6.58203125 59.2578125 C7.29294922 59.25330078 8.00386719 59.24878906 8.73632812 59.24414062 C10.49743138 59.23232114 12.25849161 59.21438513 14.01953125 59.1953125 C13.46892642 54.84707813 12.76569659 51.29285254 10.91796875 47.3046875 C8.96734123 42.72495333 7.55060005 37.9284135 6.01953125 33.1953125 C5.68953125 33.1953125 5.35953125 33.1953125 5.01953125 33.1953125 Z " fill="#2B925D" transform="translate(1014.98046875,268.8046875)"/>
<path d="M0 0 C5.36458399 5.50957275 7.35152286 12.12570215 7.46850586 19.64697266 C7.45827393 20.40284668 7.44804199 21.1587207 7.4375 21.9375 C7.42920166 22.72946777 7.42090332 23.52143555 7.41235352 24.33740234 C7.13760368 33.82751593 3.93855179 39.44759443 -2.31640625 46.46875 C-4 48 -4 48 -7 49 C-7 49.66 -7 50.32 -7 51 C-18.01421878 57.63221776 -29.58418202 56.51285471 -42 56 C-41.99214478 57.30203369 -41.99214478 57.30203369 -41.98413086 58.63037109 C-41.96710138 61.84700273 -41.95455592 65.06361141 -41.94506836 68.28027344 C-41.9400357 69.67318477 -41.93320902 71.0660908 -41.92456055 72.45898438 C-41.91244848 74.45961246 -41.90729588 76.46027888 -41.90234375 78.4609375 C-41.89448853 80.26763916 -41.89448853 80.26763916 -41.88647461 82.11083984 C-42 85 -42 85 -43 87 C-50.92 87 -58.84 87 -67 87 C-67 55.32 -67 23.64 -67 -9 C-12.64419171 -11.26482535 -12.64419171 -11.26482535 0 0 Z M-42 11 C-42.08758003 12.99964982 -42.10696576 15.0023611 -42.09765625 17.00390625 C-42.09443359 18.21884766 -42.09121094 19.43378906 -42.08789062 20.68554688 C-42.07951172 21.96494141 -42.07113281 23.24433594 -42.0625 24.5625 C-42.05798828 25.84576172 -42.05347656 27.12902344 -42.04882812 28.45117188 C-42.03699545 31.63416022 -42.02051068 34.81705762 -42 38 C-40.08294507 37.86341737 -38.16636142 37.7202095 -36.25 37.57421875 C-35.18265625 37.49518311 -34.1153125 37.41614746 -33.015625 37.3347168 C-27.63317649 36.73729639 -24.34141019 35.44459559 -20.5625 31.375 C-18.340347 26.57514951 -17.96231634 21.93828321 -19.7421875 16.8984375 C-22.30495318 13.03041229 -26.74180613 11.47648886 -31 10 C-36.85584462 9.06398295 -36.85584462 9.06398295 -42 11 Z " fill="#2B925D" transform="translate(386,279)"/>
<path d="M0 0 C0 7.92 0 15.84 0 24 C-5 24 -5 24 -6.4453125 22.69140625 C-6.95835938 22.13324219 -7.47140625 21.57507813 -8 21 C-9.92701027 19.92120365 -11.88991732 18.90528969 -13.875 17.9375 C-14.90367188 17.43089844 -15.93234375 16.92429687 -16.9921875 16.40234375 C-24.14978886 13.06522831 -29.91308637 11.58818134 -37.73046875 13.7578125 C-43.67540885 15.9882627 -47.57265733 18.1190215 -50.484375 23.99609375 C-54.93779665 36.105552 -55.87222184 47.79325066 -51 60 C-47.38554976 66.2918208 -42.62492467 69.33469229 -35.76171875 71.44140625 C-25.99376032 73.41710364 -16.38044308 68.70122417 -8 64 C-7.484375 63.4225 -6.96875 62.845 -6.4375 62.25 C-5.963125 61.8375 -5.48875 61.425 -5 61 C-2.41015625 61.421875 -2.41015625 61.421875 0 62 C0.14500644 65.60374463 0.23396763 69.20674242 0.3125 72.8125 C0.35439453 73.83666016 0.39628906 74.86082031 0.43945312 75.91601562 C0.48493949 78.69068369 0.4657617 81.26375883 0 84 C-2.1875 86.0703125 -2.1875 86.0703125 -5 87 C-6.29357422 87.54333984 -6.29357422 87.54333984 -7.61328125 88.09765625 C-8.50402344 88.41605469 -9.39476563 88.73445313 -10.3125 89.0625 C-11.19550781 89.38347656 -12.07851562 89.70445312 -12.98828125 90.03515625 C-28.48600029 95.00005457 -43.23481842 94.25435294 -58.21875 87.5625 C-68.84648813 81.98025371 -75.70726655 73.84150933 -79.34375 62.41015625 C-79.5603125 61.61480469 -79.776875 60.81945312 -80 60 C-80.1743457 59.41742432 -80.34869141 58.83484863 -80.52832031 58.23461914 C-81.61808887 53.07175599 -81.22844334 47.62943516 -81.25 42.375 C-81.270625 41.14136719 -81.29125 39.90773438 -81.3125 38.63671875 C-81.35196665 29.35218921 -80.59519411 20.84753354 -75 13.125 C-74.505 12.42632812 -74.01 11.72765625 -73.5 11.0078125 C-72.7575 10.01394531 -72.7575 10.01394531 -72 9 C-71.484375 8.25492187 -70.96875 7.50984375 -70.4375 6.7421875 C-69.7259375 5.87980469 -69.7259375 5.87980469 -69 5 C-68.34 5 -67.68 5 -67 5 C-67 4.34 -67 3.68 -67 3 C-47.51470618 -13.83914281 -21.33820988 -9.96821484 0 0 Z " fill="#2B915D" transform="translate(88,276)"/>
<path d="M0 0 C1.44959106 0.01305176 1.44959106 0.01305176 2.9284668 0.02636719 C13.75952329 0.24948055 21.10405653 2.94902513 31.0625 7.375 C31.0625 15.625 31.0625 23.875 31.0625 32.375 C26.0625 31.375 26.0625 31.375 24.375 29.625 C17.78173018 23.20992667 9.43719118 21.11408219 0.52734375 21.21875 C-4.6256265 21.54540422 -8.72284593 23.48495149 -12.9375 26.375 C-13.2675 27.035 -13.5975 27.695 -13.9375 28.375 C-14.5975 28.375 -15.2575 28.375 -15.9375 28.375 C-22.024446 39.94283244 -23.32321643 52.78156798 -19.9375 65.375 C-18.5488268 68.67947541 -17.26775211 71.70987395 -13.9375 73.375 C-13.9375 74.035 -13.9375 74.695 -13.9375 75.375 C-13.091875 75.643125 -12.24625 75.91125 -11.375 76.1875 C-7.9375 77.375 -7.9375 77.375 -4.5 79 C3.14874014 81.95214532 9.3132196 79.61881528 16.671875 76.88671875 C20.45307029 75.20086324 23.41673914 73.2361243 26.51171875 70.51171875 C28.0625 69.375 28.0625 69.375 31.0625 69.375 C31.0625 77.295 31.0625 85.215 31.0625 93.375 C14.64471515 101.47444052 -1.91368451 104.35836494 -19.46411133 98.51245117 C-24.47016874 96.70825675 -28.72744452 94.6202511 -32.9375 91.375 C-32.9375 90.715 -32.9375 90.055 -32.9375 89.375 C-33.5975 89.375 -34.2575 89.375 -34.9375 89.375 C-34.9375 88.715 -34.9375 88.055 -34.9375 87.375 C-35.9275 87.045 -36.9175 86.715 -37.9375 86.375 C-47.47514479 74.13760425 -50.2726759 58.5399608 -48.9375 43.375 C-47.25602394 31.25725514 -42.6579863 20.0954863 -33.9375 11.375 C-33.2775 11.375 -32.6175 11.375 -31.9375 11.375 C-31.9375 10.715 -31.9375 10.055 -31.9375 9.375 C-30.31992264 8.42475018 -28.69288646 7.49060088 -27.0625 6.5625 C-26.15757812 6.04042969 -25.25265625 5.51835937 -24.3203125 4.98046875 C-16.27405 1.16174602 -8.86710321 -0.13328164 0 0 Z " fill="#2B925D" transform="translate(940.9375,267.625)"/>
<path d="M0 0 C19.20154832 -0.92315136 19.20154832 -0.92315136 24.53515625 3.39453125 C36.82256152 16.86152743 38.8274017 36.25074898 38.12548828 53.66455078 C37.58884691 63.65192689 35.90713749 73.00353553 32.953125 82.58203125 C31.44919847 87.97521041 30.70027944 93.45304966 30 99 C29.01 98.67 28.02 98.34 27 98 C26.99589111 97.28980713 26.99178223 96.57961426 26.98754883 95.84790039 C26.95436257 92.58529275 26.88369063 89.32449096 26.8125 86.0625 C26.80669922 84.94552734 26.80089844 83.82855469 26.79492188 82.67773438 C26.55631219 73.63707842 24.52847017 67.3601696 18 61 C17.29344779 59.85704789 16.62582796 58.68907313 16 57.5 C14.58365972 54.91245527 13.14711967 53.03976369 11 51 C11 50.34 11 49.68 11 49 C10.34 49 9.68 49 9 49 C7.34375 47.390625 7.34375 47.390625 5.5 45.25 C4.8915625 44.55390625 4.283125 43.8578125 3.65625 43.140625 C2.12023037 41.15539208 1.0276034 39.28127955 0 37 C-0.66 37 -1.32 37 -2 37 C-8.24754189 29.40966065 -9.76001872 22.89899084 -9.5390625 13.34765625 C-8.97510389 9.84539153 -8.13471662 7.81132213 -6 5 C-4.67405895 4.63837971 -3.34061543 4.30271961 -2 4 C-0.86186523 2.01036539 -0.86186523 2.01036539 0 0 Z " fill="#2B925D" transform="translate(619,88)"/>
<path d="M0 0 C7.47363763 1.49983023 14.30525089 3.40973758 19.99072266 8.67919922 C19.99072266 9.33919922 19.99072266 9.99919922 19.99072266 10.67919922 C20.65072266 10.67919922 21.31072266 10.67919922 21.99072266 10.67919922 C26.43392857 18.44964305 27.75349983 24.68903561 25.99072266 33.67919922 C25.66072266 34.66919922 25.33072266 35.65919922 24.99072266 36.67919922 C24.33072266 36.67919922 23.67072266 36.67919922 22.99072266 36.67919922 C22.99072266 37.33919922 22.99072266 37.99919922 22.99072266 38.67919922 C19.85573974 40.53696687 17.61600833 40.88060398 13.99072266 40.67919922 C13.99072266 39.68919922 13.99072266 38.69919922 13.99072266 37.67919922 C14.98072266 37.67919922 15.97072266 37.67919922 16.99072266 37.67919922 C16.99072266 37.01919922 16.99072266 36.35919922 16.99072266 35.67919922 C18.65738932 34.01253255 20.32405599 32.34586589 21.99072266 30.67919922 C23.28592261 28.51299378 23.28592261 28.51299378 23.99072266 26.67919922 C23.00072266 27.00919922 22.01072266 27.33919922 20.99072266 27.67919922 C8.53794541 28.37102018 -3.09248545 25.6286373 -14.00927734 19.67919922 C-16.28662109 17.60888672 -16.28662109 17.60888672 -18.00927734 15.67919922 C-18.66927734 15.01919922 -19.32927734 14.35919922 -20.00927734 13.67919922 C-21.81549936 17.517421 -22.52801332 20.44285543 -22.00927734 24.67919922 C-19.0835285 30.09725262 -15.62833993 33.69825289 -9.81787109 35.87451172 C-8.70541016 36.18130859 -7.59294922 36.48810547 -6.44677734 36.80419922 C-2.75909755 37.83589692 0.63171027 38.82311903 3.99072266 40.67919922 C2.99072266 41.67919922 2.99072266 41.67919922 -0.88427734 41.92919922 C-8.25711735 41.85841995 -17.02530213 40.09403512 -22.75927734 35.17919922 C-24.00927734 33.67919922 -24.00927734 33.67919922 -24.00927734 31.67919922 C-24.66927734 31.67919922 -25.32927734 31.67919922 -26.00927734 31.67919922 C-28.86935615 27.38908101 -28.6125007 23.71575086 -28.00927734 18.67919922 C-26.49916225 13.82153834 -24.61850074 10.2389812 -21.00927734 6.67919922 C-20.67927734 5.83357422 -20.34927734 4.98794922 -20.00927734 4.11669922 C-17.05215522 -3.09128596 -6.32364512 -1.0096318 0 0 Z " fill="#2F925E" transform="translate(395.00927734375,375.32080078125)"/>
<path d="M0 0 C0.66 0 1.32 0 2 0 C2.66 1.65 3.32 3.3 4 5 C4.66 5 5.32 5 6 5 C8.625 7.375 8.625 7.375 11 10 C11 10.66 11 11.32 11 12 C11.66 12 12.32 12 13 12 C13 12.66 13 13.32 13 14 C13.65226562 13.61585938 14.30453125 13.23171875 14.9765625 12.8359375 C22.20411664 8.8490566 22.20411664 8.8490566 26.625 9.6875 C27.40875 10.120625 28.1925 10.55375 29 11 C29.29447349 15.0651706 28.59784421 17.19905905 26.4375 20.625 C24.98508444 22.83323353 24.98508444 22.83323353 24 25 C24.33 25.99 24.66 26.98 25 28 C25.66 28 26.32 28 27 28 C27 28.66 27 29.32 27 30 C27.66 30 28.32 30 29 30 C29 30.66 29 31.32 29 32 C30.155 32.144375 31.31 32.28875 32.5 32.4375 C36.66666667 32.95833333 40.83333333 33.47916667 45 34 C45.99376207 37.70402226 46.00441213 39.98109087 45.125 43.75 C43 47 43 47 40.86328125 47.74609375 C38.4375 48.1875 38.4375 48.1875 36.05859375 48.41796875 C35.37925781 48.61003906 34.69992187 48.80210937 34 49 C33.29835001 50.31526025 32.63290402 51.6503131 32 53 C27.94760328 55.698742 23.70244471 55.56061174 19 55 C15.9375 53.625 15.9375 53.625 14 52 C14 51.34 14 50.68 14 50 C14.66 49.5875 15.32 49.175 16 48.75 C18.3664015 47.09066177 18.3664015 47.09066177 18.25 43.8125 C18.12625 42.4203125 18.12625 42.4203125 18 41 C18.9075 40.9175 19.815 40.835 20.75 40.75 C24.40077839 39.90751268 25.63384583 38.82118382 28 36 C26.93283928 34.79794536 25.84561663 33.61367667 24.75 32.4375 C24.14671875 31.77621094 23.5434375 31.11492187 22.921875 30.43359375 C21.11403849 28.74668047 21.11403849 28.74668047 18.890625 29.22265625 C16.96004947 29.98935279 16.96004947 29.98935279 15 31 C15.33 32.32 15.66 33.64 16 35 C15.01 35 14.02 35 13 35 C13 34.34 13 33.68 13 33 C11.64455078 33.05220703 11.64455078 33.05220703 10.26171875 33.10546875 C9.08222656 33.13253906 7.90273438 33.15960938 6.6875 33.1875 C5.51574219 33.22230469 4.34398437 33.25710938 3.13671875 33.29296875 C0 33 0 33 -1.890625 31.671875 C-3.65267427 29.01639229 -3.44272216 27.09905509 -3 24 C-1.125 21.75 -1.125 21.75 1 20 C1.66 19.34 2.32 18.68 3 18 C2.34644531 17.46632813 1.69289063 16.93265625 1.01953125 16.3828125 C-1.5525566 13.34804733 -1.45213372 11.7943742 -1.3125 7.875 C-1.28800781 6.82054687 -1.26351563 5.76609375 -1.23828125 4.6796875 C-1 2 -1 2 0 0 Z " fill="#2B925D" transform="translate(311,381)"/>
<path d="M0 0 C10.52313783 2.11958937 19.63003859 4.58383733 29 10 C29 10.66 29 11.32 29 12 C24.71 12 20.42 12 16 12 C16.66 13.32 17.32 14.64 18 16 C18.66 16 19.32 16 20 16 C21.2890625 17.4609375 21.2890625 17.4609375 22.625 19.375 C23.07101562 20.00148438 23.51703125 20.62796875 23.9765625 21.2734375 C25 23 25 23 25 25 C25.66 25 26.32 25 27 25 C27.495 26.485 27.495 26.485 28 28 C27.67 28.66 27.34 29.32 27 30 C20.54441853 29.88472176 17.55716741 28.37156956 12.859375 23.984375 C10.76932842 21.75382108 8.87835942 19.41028421 7 17 C6.46890625 18.07378906 5.9378125 19.14757812 5.390625 20.25390625 C4.67719255 21.69015842 3.96364471 23.12635328 3.25 24.5625 C2.72792969 25.61920898 2.72792969 25.61920898 2.1953125 26.69726562 C-0.05837608 31.22551026 -2.45092412 35.6309758 -5 40 C-5.99 40 -6.98 40 -8 40 C-8.49155247 31.93489832 -7.04937325 24.78273888 -5 17 C-5.74765625 17.42152344 -6.4953125 17.84304688 -7.265625 18.27734375 C-8.25046875 18.82519531 -9.2353125 19.37304688 -10.25 19.9375 C-11.22453125 20.48277344 -12.1990625 21.02804687 -13.203125 21.58984375 C-17.30456659 23.65774936 -20.5521579 24.15337431 -25.125 24.1875 C-26.42824219 24.20876953 -26.42824219 24.20876953 -27.7578125 24.23046875 C-30 24 -30 24 -32 22 C-31 20 -31 20 -28.375 18.9375 C-25 18 -25 18 -21.5625 17.75 C-16.87232209 16.76259412 -14.23728556 14.44761768 -11 11 C-10.67 10.34 -10.34 9.68 -10 9 C-9.34 9 -8.68 9 -8 9 C-7.67 8.01 -7.34 7.02 -7 6 C-6.01 5.690625 -5.02 5.38125 -4 5.0625 C-3.01 4.711875 -2.02 4.36125 -1 4 C-0.26735311 1.98215284 -0.26735311 1.98215284 0 0 Z " fill="#2D915D" transform="translate(447,418)"/>
<path d="M0 0 C4.43489763 0.50684544 6.88054736 1.7984565 10 5 C13.24142124 11.37106933 13.35054764 16.93711417 13 24 C12.24976563 24.20753906 11.49953125 24.41507813 10.7265625 24.62890625 C3.90040221 26.68363208 -1.31920648 29.21501196 -6.94140625 33.609375 C-9 35 -9 35 -12 35 C-12.2475 33.80375 -12.495 32.6075 -12.75 31.375 C-14.05975567 26.20009125 -16.10243553 22.37573424 -20.5 19.1875 C-22.69498552 18.14488188 -24.61883723 17.44095607 -27 17 C-27 16.34 -27 15.68 -27 15 C-24.69 14.34 -22.38 13.68 -20 13 C-20 12.34 -20 11.68 -20 11 C-17.23456804 9.48987869 -14.46183193 7.99369852 -11.6875 6.5 C-10.90181641 6.07074219 -10.11613281 5.64148438 -9.30664062 5.19921875 C-8.54931641 4.79316406 -7.79199219 4.38710937 -7.01171875 3.96875 C-6.31522217 3.59169922 -5.61872559 3.21464844 -4.90112305 2.82617188 C-3 2 -3 2 0 2 C0 1.34 0 0.68 0 0 Z " fill="#998867" transform="translate(546,223)"/>
<path d="M0 0 C4.51676452 3.70839503 7.05536294 7.07324096 8.18359375 12.87109375 C8.39034369 15.8924622 8.3724265 18.84976982 8.18359375 21.87109375 C7.28898438 22.05285156 6.394375 22.23460937 5.47265625 22.421875 C-1.74346087 23.92202728 -8.80509961 25.59322685 -15.81640625 27.87109375 C-15.92597656 27.00226563 -16.03554688 26.1334375 -16.1484375 25.23828125 C-17.14214616 16.59631428 -17.14214616 16.59631428 -20.81640625 8.87109375 C-23.40083948 7.13619129 -23.40083948 7.13619129 -25.81640625 5.87109375 C-25.81640625 5.21109375 -25.81640625 4.55109375 -25.81640625 3.87109375 C-5.17448047 -3.21596743 -5.17448047 -3.21596743 0 0 Z " fill="#988767" transform="translate(574.81640625,218.12890625)"/>
<path d="M0 0 C4.27081914 -0.02897435 8.54161309 -0.04678996 12.8125 -0.0625 C14.63491211 -0.07506836 14.63491211 -0.07506836 16.49414062 -0.08789062 C18.23920898 -0.09272461 18.23920898 -0.09272461 20.01953125 -0.09765625 C21.09307861 -0.10289307 22.16662598 -0.10812988 23.27270508 -0.11352539 C26.54020358 0.02248632 28.36859497 0.32338697 30.63671875 2.75390625 C33.36586782 7.25035529 33.4742366 12.81851165 32.375 17.875 C30.13595224 21.33534654 27.58514165 23.44305834 23.6875 24.8125 C20.0000924 25.069761 16.65422472 24.55742411 13 24 C12.91363281 23.14277344 12.82726562 22.28554687 12.73828125 21.40234375 C11.8532849 14.20058448 11.07839061 9.30922654 6 4 C2.86653522 2.05447211 2.86653522 2.05447211 0 1 C0 0.67 0 0.34 0 0 Z " fill="#988767" transform="translate(602,212)"/>
<path d="M0 0 C0.99 0.66 1.98 1.32 3 2 C3 2.66 3 3.32 3 4 C3.66 4 4.32 4 5 4 C5 4.66 5 5.32 5 6 C5.66 6 6.32 6 7 6 C7 6.66 7 7.32 7 8 C8.155 8.144375 9.31 8.28875 10.5 8.4375 C16.75 9.21875 16.75 9.21875 23 10 C23.99376207 13.70402226 24.00441213 15.98109087 23.125 19.75 C21 23 21 23 18.86328125 23.74609375 C16.4375 24.1875 16.4375 24.1875 14.05859375 24.41796875 C13.37925781 24.61003906 12.69992187 24.80210937 12 25 C11.29835001 26.31526025 10.63290402 27.6503131 10 29 C5.94760328 31.698742 1.70244471 31.56061174 -3 31 C-6.0625 29.625 -6.0625 29.625 -8 28 C-8 27.34 -8 26.68 -8 26 C-7.34 25.5875 -6.68 25.175 -6 24.75 C-3.6335985 23.09066177 -3.6335985 23.09066177 -3.75 19.8125 C-3.8325 18.884375 -3.915 17.95625 -4 17 C-2.63875 16.87625 -2.63875 16.87625 -1.25 16.75 C2.40077839 15.90751268 3.63384583 14.82118382 6 12 C4.90220176 10.84806377 3.79650554 9.70365063 2.6875 8.5625 C2.07261719 7.92441406 1.45773437 7.28632813 0.82421875 6.62890625 C-1.00644056 4.7778582 -1.00644056 4.7778582 -4 4 C-3.67 3.01 -3.34 2.02 -3 1 C-2.01 0.67 -1.02 0.34 0 0 Z " fill="#2B915D" transform="translate(333,405)"/>
<path d="M0 0 C0.99 0.33 1.98 0.66 3 1 C2.05753435 3.89471594 1.12511563 6.72196526 -0.125 9.5 C-1.21281159 12.60803312 -1.40136388 14.72219497 -1 18 C1.92574884 23.41805341 5.38093741 27.01905367 11.19140625 29.1953125 C12.30386719 29.50210937 13.41632813 29.80890625 14.5625 30.125 C18.2501798 31.1566977 21.64098762 32.14391981 25 34 C24 35 24 35 20.125 35.25 C12.75215999 35.17922074 3.98397521 33.4148359 -1.75 28.5 C-3 27 -3 27 -3 25 C-3.66 25 -4.32 25 -5 25 C-7.86007881 20.70988179 -7.60322336 17.03655164 -7 12 C-5.52036726 7.2403932 -3.70540351 3.38688745 0 0 Z " fill="#2B925D" transform="translate(374,382)"/>
<path d="M0 0 C0.99 0.66 1.98 1.32 3 2 C3 2.66 3 3.32 3 4 C3.66 4 4.32 4 5 4 C5 4.66 5 5.32 5 6 C5.66 6 6.32 6 7 6 C7 6.66 7 7.32 7 8 C9.475 8.99 9.475 8.99 12 10 C12 11.32 12 12.64 12 14 C7.62222148 13.51188532 5.81310554 12.2261551 2.875 9 C-0.05459893 5.75847617 -0.05459893 5.75847617 -4 4 C-3.67 3.01 -3.34 2.02 -3 1 C-2.01 0.67 -1.02 0.34 0 0 Z " fill="#958766" transform="translate(333,405)"/>
<path d="M0 0 C5.76567531 1.19689242 10.29909144 4.25433069 14.375 8.4375 C16.92776663 14.03394992 17.36723781 19.92215267 18 26 C16.68 26 15.36 26 14 26 C14.061875 24.845 14.12375 23.69 14.1875 22.5 C14.1661239 16.46125223 12.51689363 11.89611704 8.75 7.1875 C5.57251262 4.65995322 2.78989498 3.41192166 -1 2 C-0.67 1.34 -0.34 0.68 0 0 Z " fill="#EEDF79" transform="translate(598,211)"/>
<path d="M0 0 C0.99 0 1.98 0 3 0 C2.54177532 3.46941546 2.10868317 6.67395049 1 10 C0.34 10 -0.32 10 -1 10 C-1 10.66 -1 11.32 -1 12 C-4.13498292 13.85776765 -6.37471432 14.20140476 -10 14 C-10 13.01 -10 12.02 -10 11 C-9.01 11 -8.02 11 -7 11 C-7 10.34 -7 9.68 -7 9 C-5.33333333 7.33333333 -3.66666667 5.66666667 -2 4 C-0.70480005 1.83379456 -0.70480005 1.83379456 0 0 Z " fill="#988767" transform="translate(419,402)"/>
<path d="M0 0 C1.74506836 0.00966797 1.74506836 0.00966797 3.52539062 0.01953125 C4.74033203 0.03628906 5.95527344 0.05304688 7.20703125 0.0703125 C8.43357422 0.07933594 9.66011719 0.08835937 10.92382812 0.09765625 C13.9559242 0.12125233 16.98763063 0.15417409 20.01953125 0.1953125 C20.34953125 1.1853125 20.67953125 2.1753125 21.01953125 3.1953125 C12.10953125 3.1953125 3.19953125 3.1953125 -5.98046875 3.1953125 C-5.98046875 3.8553125 -5.98046875 4.5153125 -5.98046875 5.1953125 C-6.64046875 5.1953125 -7.30046875 5.1953125 -7.98046875 5.1953125 C-8.31046875 6.1853125 -8.64046875 7.1753125 -8.98046875 8.1953125 C-9.16796875 5.3203125 -9.16796875 5.3203125 -8.98046875 2.1953125 C-5.48710057 -0.13359962 -4.1203901 -0.04019893 0 0 Z " fill="#788B63" transform="translate(1014.98046875,268.8046875)"/>
<path d="M0 0 C4.43489763 0.50684544 6.88054736 1.7984565 10 5 C13.24142124 11.37106933 13.35054764 16.93711417 13 24 C12.01 24 11.02 24 10 24 C9.96261719 23.04738281 9.92523437 22.09476563 9.88671875 21.11328125 C9.82097656 19.85902344 9.75523437 18.60476562 9.6875 17.3125 C9.62949219 16.07113281 9.57148437 14.82976562 9.51171875 13.55078125 C8.98243322 9.87810532 8.2436773 7.92101385 6 5 C2.93319201 3.17370206 2.93319201 3.17370206 0 2 C0 1.34 0 0.68 0 0 Z " fill="#F0E17A" transform="translate(546,223)"/>
<path d="M0 0 C0.99 0.33 1.98 0.66 3 1 C2.51789062 1.39832031 2.03578125 1.79664063 1.5390625 2.20703125 C0.90742187 2.73683594 0.27578125 3.26664062 -0.375 3.8125 C-1.00148438 4.33457031 -1.62796875 4.85664063 -2.2734375 5.39453125 C-4.7805051 7.72576379 -5.95267673 9.32706304 -6.1953125 12.77734375 C-6.17210937 13.82019531 -6.14890625 14.86304688 -6.125 15.9375 C-6.10695313 16.97777344 -6.08890625 18.01804687 -6.0703125 19.08984375 C-6.04710937 20.05019531 -6.02390625 21.01054687 -6 22 C-6 23.32 -6 24.64 -6 26 C-6.99 25.67 -7.98 25.34 -9 25 C-10.5744479 18.70220839 -11.17827041 13.41588938 -7.8125 7.75 C-5.59483395 4.56485358 -3.35913937 2.0331633 0 0 Z " fill="#EADB78" transform="translate(519,397)"/>
<path d="M0 0 C1.32 0 2.64 0 4 0 C4 0.66 4 1.32 4 2 C4.88945313 2.38865234 4.88945313 2.38865234 5.796875 2.78515625 C9.68958147 4.93166638 12.05906744 8.03567695 14 12 C14.48017627 15.72871572 14.3707306 19.26523248 14 23 C13.01 23.33 12.02 23.66 11 24 C11.0825 22.865625 11.165 21.73125 11.25 20.5625 C11.21853629 14.63683535 9.35202712 9.40742819 5.17578125 5.1328125 C3.94161514 4.08639985 2.68116511 3.06978874 1.390625 2.09375 C0.93171875 1.7328125 0.4728125 1.371875 0 1 C0 0.67 0 0.34 0 0 Z " fill="#E6D778" transform="translate(571,215)"/>
<path d="M0 0 C0.99 0 1.98 0 3 0 C2.69558521 3.55150592 2.02406007 4.97138802 -0.3125 7.75 C-4.90096691 11.59150718 -9.15398941 11.30098272 -15 11 C-18 10.5 -18 10.5 -20 10 C-20 9.34 -20 8.68 -20 8 C-18.31970703 7.92652344 -18.31970703 7.92652344 -16.60546875 7.8515625 C-15.13278797 7.77652144 -13.66013293 7.70097418 -12.1875 7.625 C-11.44951172 7.5940625 -10.71152344 7.563125 -9.95117188 7.53125 C-6.18106885 7.32653852 -4.20349259 7.13566173 -1 5 C-0.27034634 2.43717258 -0.27034634 2.43717258 0 0 Z " fill="#D9C875" transform="translate(604,357)"/>
<path d="M0 0 C0.99 0 1.98 0 3 0 C4.17578125 1.42578125 4.17578125 1.42578125 5.3125 3.3125 C7.84028847 6.97445748 9.6066885 8.66631615 14 10 C18.34606798 10.2281945 22.65281352 10.17414545 27 10 C27 10.66 27 11.32 27 12 C23.23466531 13.88266735 19.09986961 13.5124837 15 13 C6.035145 9.88720312 6.035145 9.88720312 3.8515625 5.90625 C3.57054687 5.2771875 3.28953125 4.648125 3 4 C0.9664052 2.73195434 0.9664052 2.73195434 -1 2 C-0.67 1.34 -0.34 0.68 0 0 Z " fill="#ECDD79" transform="translate(572,388)"/>
<path d="M0 0 C5.71814673 0.69310869 10.14889666 3.29898612 14.3125 7.125 C16.70464083 11.20049919 17.31598334 15.36488713 18 20 C17.01 20 16.02 20 15 20 C14.7525 18.80375 14.505 17.6075 14.25 16.375 C12.94024433 11.20009125 10.89756447 7.37573424 6.5 4.1875 C4.30501448 3.14488188 2.38116277 2.44095607 0 2 C0 1.34 0 0.68 0 0 Z " fill="#ECDD79" transform="translate(519,238)"/>
<path d="M0 0 C0.99 0.33 1.98 0.66 3 1 C1.82740236 6.98024796 0.24416975 9.47027036 -5 13 C-10.36230116 15.49409356 -16.17316381 15.60601463 -22 16 C-22.33 15.34 -22.66 14.68 -23 14 C-22.154375 13.90203125 -21.30875 13.8040625 -20.4375 13.703125 C-10.51225424 12.69479096 -10.51225424 12.69479096 -2 8 C-0.7493836 5.24547781 -0.40635994 3.04769954 0 0 Z " fill="#EDDE79" transform="translate(587,322)"/>
<path d="M0 0 C0.66 0 1.32 0 2 0 C1.835 0.66 1.67 1.32 1.5 2 C0.56196437 7.62821379 0.14985563 11.38765723 2.8125 16.4375 C4.80947276 19.22327984 4.80947276 19.22327984 8 20 C8 20.99 8 21.98 8 23 C7.01 23 6.02 23 5 23 C5 22.34 5 21.68 5 21 C4.401875 20.773125 3.80375 20.54625 3.1875 20.3125 C0.26372999 18.55823799 -0.63847463 17.13150836 -2 14 C-2.41847439 8.72722269 -1.98616619 4.96541546 0 0 Z " fill="#F1E27A" transform="translate(548,403)"/>
<path d="M0 0 C0.99 0.33 1.98 0.66 3 1 C3.36923077 6.41538462 3.36923077 6.41538462 1.5 9.375 C1.005 9.91125 0.51 10.4475 0 11 C-1.32 10.34 -2.64 9.68 -4 9 C-3.46930939 5.17902761 -2.50298434 2.93828597 0 0 Z " fill="#DCE9E1" transform="translate(400,386)"/>
<path d="M0 0 C0.66 0 1.32 0 2 0 C2.06160759 3.96048806 2.07503439 7.57474194 -0.37890625 10.828125 C-4.18712797 14.20185163 -8.16630619 16.44956991 -13 18 C-15.4375 17.6875 -15.4375 17.6875 -17 17 C-14.53096349 15.71610101 -12.09787108 14.64559221 -9.5 13.625 C-6.02973386 12.01380501 -4.23547119 11.06342348 -2 8 C-1.10613828 5.33884596 -0.55293241 2.76466204 0 0 Z " fill="#E4D577" transform="translate(552,301)"/>
<path d="M0 0 C2.54405638 0.06042889 5.08256731 0.14759028 7.625 0.25 C8.33785156 0.26417969 9.05070313 0.27835937 9.78515625 0.29296875 C14.93933896 0.52939915 17.83272124 1.74927815 22 5 C22.99 5.66 23.98 6.32 25 7 C24.67 7.99 24.34 8.98 24 10 C23.38511719 9.57847656 22.77023437 9.15695312 22.13671875 8.72265625 C21.32847656 8.17480469 20.52023437 7.62695312 19.6875 7.0625 C18.88699219 6.51722656 18.08648438 5.97195313 17.26171875 5.41015625 C13.36287137 2.97926868 10.31169215 2.88912159 5.8125 2.9375 C4.72582031 2.94652344 3.63914062 2.95554687 2.51953125 2.96484375 C1.68808594 2.97644531 0.85664063 2.98804688 0 3 C0 2.01 0 1.02 0 0 Z " fill="#EEDF79" transform="translate(503,263)"/>
<path d="M0 0 C8.58 0 17.16 0 26 0 C26.33 0.99 26.66 1.98 27 3 C13.14 2.505 13.14 2.505 -1 2 C-0.67 1.34 -0.34 0.68 0 0 Z " fill="#968766" transform="translate(1009,269)"/>
<path d="M0 0 C1.32 0 2.64 0 4 0 C4 0.66 4 1.32 4 2 C4.86625 2.3403125 4.86625 2.3403125 5.75 2.6875 C8.62887527 4.36684391 10.17447619 6.22790829 12 9 C11.67 9.99 11.34 10.98 11 12 C10.54109375 11.46890625 10.0821875 10.9378125 9.609375 10.390625 C6.50506283 6.81675301 3.41818688 3.28145941 0 0 Z " fill="#F2E37A" transform="translate(571,215)"/>
<path d="M0 0 C3.90532683 0.37793485 7.2815754 0.76052513 11 2 C11 2.66 11 3.32 11 4 C9.56344146 4.08131463 8.1255517 4.13933559 6.6875 4.1875 C5.48673828 4.23970703 5.48673828 4.23970703 4.26171875 4.29296875 C1.52148416 3.93801608 0.70828921 3.10633718 -1 1 C-0.67 0.67 -0.34 0.34 0 0 Z " fill="#C9DDD0" transform="translate(383,383)"/>
<path d="M0 0 C0.99 0.33 1.98 0.66 3 1 C2.34 2.98 1.68 4.96 1 7 C-0.32 7 -1.64 7 -3 7 C-3.33 6.34 -3.66 5.68 -4 5 C-2.68 3.35 -1.36 1.7 0 0 Z " fill="#938766" transform="translate(374,382)"/>
<path d="M0 0 C3.3 0.66 6.6 1.32 10 2 C9.67 2.66 9.34 3.32 9 4 C6.03 4 3.06 4 0 4 C-0.33 3.34 -0.66 2.68 -1 2 C-0.67 1.34 -0.34 0.68 0 0 Z " fill="#948766" transform="translate(389,413)"/>
<path d="M0 0 C4.95 0.33 9.9 0.66 15 1 C13 3 13 3 9.1875 3.1875 C6.02729249 3.11266813 3.07681004 2.76920251 0 2 C0 1.34 0 0.68 0 0 Z " fill="#E7D878" transform="translate(584,365)"/>
<path d="M0 0 C0.99 0 1.98 0 3 0 C3 3.63 3 7.26 3 11 C2.01 11 1.02 11 0 11 C0 7.37 0 3.74 0 0 Z " fill="#E1D177" transform="translate(556,236)"/>
<path d="M0 0 C2.475 0.495 2.475 0.495 5 1 C5 2.32 5 3.64 5 5 C3.68 4.67 2.36 4.34 1 4 C0.67 2.68 0.34 1.36 0 0 Z " fill="#E3EDE7" transform="translate(409,390)"/>
<path d="M0 0 C2.31 0.33 4.62 0.66 7 1 C6.67 1.99 6.34 2.98 6 4 C4.35 4 2.7 4 1 4 C0.67 2.68 0.34 1.36 0 0 Z " fill="#918866" transform="translate(401,378)"/>
<path d="M0 0 C0 0.66 0 1.32 0 2 C-2.52475462 3.26237731 -4.31200466 3.09856404 -7.125 3.0625 C-8.03507813 3.05347656 -8.94515625 3.04445313 -9.8828125 3.03515625 C-10.58148437 3.02355469 -11.28015625 3.01195312 -12 3 C-8.06769671 0.37846447 -4.67664739 0 0 0 Z " fill="#D7C674" transform="translate(599,398)"/>
<path d="M0 0 C0.99 0.33 1.98 0.66 3 1 C2.67 1.66 2.34 2.32 2 3 C1.34 3 0.68 3 0 3 C0 3.99 0 4.98 0 6 C-0.99 5.67 -1.98 5.34 -3 5 C-2.625 3.0625 -2.625 3.0625 -2 1 C-1.34 0.67 -0.68 0.34 0 0 Z " fill="#8B8865" transform="translate(761,322)"/>
<path d="M0 0 C0.99 0 1.98 0 3 0 C2.50168276 3.68754757 1.89932357 5.60490662 -1 8 C-0.67 5.36 -0.34 2.72 0 0 Z " fill="#E3D377" transform="translate(604,357)"/>
</svg>
